<?xml version="1.0" encoding="UTF-8" standalone="no"?>
<svg
   width="7.11111in"
   height="7.11111in"
   viewBox="0 0 512 512"
   version="1.1"
   id="GarminIQ"
   sodipodi:docname="garmin-iq-icon-512x512-4.svg"
   inkscape:version="1.1 (ce6663b3b7, 2021-05-25)"
   xmlns:inkscape="http://www.inkscape.org/namespaces/inkscape"
   xmlns:sodipodi="http://sodipodi.sourceforge.net/DTD/sodipodi-0.dtd"
   xmlns="http://www.w3.org/2000/svg"
   xmlns:svg="http://www.w3.org/2000/svg">
  <defs
     id="defs7" />
  <sodipodi:namedview
     id="namedview5"
     pagecolor="#484848"
     bordercolor="#eeeeee"
     borderopacity="1"
     inkscape:pageshadow="0"
     inkscape:pageopacity="0"
     inkscape:pagecheckerboard="0"
     inkscape:document-units="in"
     showgrid="false"
     inkscape:zoom="1.2055666"
     inkscape:cx="340.91855"
     inkscape:cy="209.03035"
     inkscape:window-width="1920"
     inkscape:window-height="995"
     inkscape:window-x="0"
     inkscape:window-y="0"
     inkscape:window-maximized="1"
     inkscape:current-layer="GarminIQ" />
  <path
     id="GarminBG"
     fill="none"
     stroke="black"
     stroke-width="0"
     d="M 0.00,219.00            C 0.00,219.00 512.00,62.00 512.00,62.00              512.00,62.00 512.00,0.00 512.00,0.00              512.00,0.00 0.00,0.00 0.00,0.00              0.00,0.00 0.00,219.00 0.00,219.00 Z"
     style="fill:#88d7f6" />
  <path
     id="Garmin"
     fill="none"
     stroke="black"
     stroke-width="0"
     d="M 380.00,56.00            C 380.00,56.00 372.33,33.00 372.33,33.00              371.60,30.80 369.83,26.65 371.11,24.51              372.65,21.95 377.40,22.06 380.00,22.00              380.00,22.00 390.67,56.00 390.67,56.00              391.72,59.17 394.94,66.57 392.96,69.49              389.73,74.26 381.76,70.63 378.00,68.75              378.00,68.75 340.00,49.00 340.00,49.00              340.00,49.00 350.00,83.00 350.00,83.00              347.56,83.89 343.09,85.70 340.70,83.99              338.87,82.69 337.39,77.22 336.67,75.00              336.67,75.00 329.67,53.00 329.67,53.00              328.58,49.73 324.02,39.53 326.64,36.93              331.06,32.54 338.48,35.50 343.00,37.76              351.39,41.95 372.40,54.57 380.00,56.00 Z            M 296.00,45.00            C 298.53,44.43 303.24,42.63 305.49,44.06              307.85,45.55 309.18,52.27 310.02,55.00              310.02,55.00 318.28,80.00 318.28,80.00              318.93,82.16 320.82,87.78 320.22,89.78              319.29,92.87 313.22,94.61 310.84,92.36              308.99,90.62 306.42,80.88 305.58,78.00              305.58,78.00 301.33,65.00 301.33,65.00              299.15,58.46 296.34,51.95 296.00,45.00 Z            M 256.00,89.00            C 256.00,89.00 260.87,70.00 260.87,70.00              262.78,62.12 261.98,54.68 271.00,52.61              272.84,51.99 274.83,51.55 276.49,52.61              278.36,54.15 279.59,58.77 280.33,61.00              280.33,61.00 286.72,81.00 286.72,81.00              287.72,84.31 292.34,95.94 291.33,98.58              290.16,101.69 284.75,101.87 282.00,102.00              282.00,102.00 275.33,81.00 275.33,81.00              275.33,81.00 270.00,69.00 270.00,69.00              270.00,69.00 264.40,98.00 264.40,98.00              263.84,100.78 263.33,107.48 258.94,105.83              256.48,104.91 251.11,99.09 249.00,97.00              249.00,97.00 231.00,80.00 231.00,80.00              231.00,80.00 241.00,115.00 241.00,115.00              241.00,115.00 232.00,117.00 232.00,117.00              232.00,117.00 221.28,84.00 221.28,84.00              221.28,84.00 217.46,71.11 217.46,71.11              217.37,66.70 225.62,64.81 229.00,65.83              232.33,66.84 236.39,71.49 239.00,73.91              239.00,73.91 256.00,89.00 256.00,89.00 Z            M 151.00,88.00            C 155.87,85.51 157.89,85.18 163.00,83.71              175.37,80.15 201.21,69.00 206.94,87.00              208.44,91.69 207.88,95.12 204.73,98.96              203.26,100.76 198.70,103.67 199.96,106.15              202.08,110.31 214.40,115.55 218.00,122.00              214.27,122.75 209.68,124.43 206.00,123.29              200.94,121.71 190.48,111.91 186.00,110.57              181.98,109.37 175.19,112.05 171.00,113.00              171.00,113.00 176.00,134.00 176.00,134.00              174.06,134.44 169.99,135.75 168.22,135.22              164.94,134.24 163.34,127.01 162.33,124.00              162.33,124.00 151.00,88.00 151.00,88.00 Z            M 188.00,85.47            C 184.03,85.86 169.03,89.20 166.60,91.72              163.81,94.62 166.45,104.09 170.22,105.22              172.02,105.76 175.20,104.65 177.00,104.14              182.15,102.70 191.11,100.87 194.57,96.79              199.66,90.77 194.44,86.06 188.00,85.47 Z            M 100.00,155.00            C 100.00,155.00 106.25,114.00 106.25,114.00              106.86,110.35 107.41,102.12 110.31,99.85              115.97,95.44 121.33,102.42 125.00,105.99              125.00,105.99 146.00,126.00 146.00,126.00              150.12,130.12 154.48,133.68 157.00,139.00              154.15,140.21 150.15,141.90 147.00,141.32              141.35,140.27 142.20,136.19 134.00,138.30              134.00,138.30 113.15,144.93 113.15,144.93              109.60,147.36 110.57,150.19 108.41,152.44              106.36,154.56 102.75,154.77 100.00,155.00 Z            M 117.00,112.00            C 113.20,116.74 112.14,130.72 112.00,137.00              117.77,136.48 127.78,133.54 133.00,131.00              130.12,123.66 122.56,117.56 117.00,112.00 Z            M 62.00,113.42            C 65.30,113.02 71.83,112.41 74.67,114.31              76.93,115.83 78.96,121.92 68.00,122.00              58.37,122.07 48.03,123.41 41.21,131.04              32.21,141.12 38.81,155.73 51.00,159.07              58.67,161.17 68.46,157.77 74.98,153.65              78.96,151.14 80.87,146.09 76.49,142.69              72.86,139.87 65.17,145.40 61.15,144.22              58.38,143.41 57.21,139.93 61.15,137.80              61.15,137.80 76.00,133.29 76.00,133.29              77.96,132.76 80.75,131.84 82.73,132.64              85.13,133.60 85.91,136.78 86.67,139.00              88.45,144.22 91.89,150.99 87.69,155.79              81.80,162.52 63.90,167.89 55.00,168.00              49.12,168.06 43.24,167.85 38.00,164.78              25.94,157.69 21.69,139.46 29.80,128.00              37.09,117.71 50.38,115.18 62.00,113.42 Z"
     style="fill:#484848" />
  <path
     id="IQBG"
     fill="none"
     stroke="black"
     stroke-width="0"
     d="M 0.00,219.00            C 0.00,219.00 512.00,62.00 512.00,62.00              512.00,62.00 512.00,512.00 512.00,512.00              512.00,512.00 0.00,512.00 0.00,512.00              0.00,512.00 0.00,219.00 0.00,219.00 Z"
     style="fill:#484848" />
  <path
     id="IQ"
     fill="none"
     stroke="black"
     stroke-width="0"
     d="M 277.00,199.29            C 247.75,203.75 223.87,215.16 204.30,238.00              160.23,289.42 173.18,368.17 230.00,404.31              253.25,419.09 281.95,424.63 309.00,420.08              314.13,419.22 325.63,416.73 329.98,414.44              332.84,412.94 335.34,410.53 334.34,407.00              333.58,404.29 329.98,401.00 328.00,399.00              325.35,396.33 320.37,390.80 317.00,389.60              313.51,388.36 308.58,390.07 305.00,390.74              297.34,392.16 294.67,392.09 287.00,392.00              275.56,391.86 264.23,388.24 254.00,383.36              243.72,378.46 234.15,370.76 226.92,362.00              215.66,348.36 208.08,330.89 208.00,313.00              207.93,298.29 209.88,286.22 216.89,273.00              237.48,234.17 286.14,216.39 326.00,236.27              338.47,242.49 349.44,251.67 357.57,263.00              367.96,277.47 373.03,293.24 373.00,311.00              372.99,317.13 372.41,321.01 371.19,327.00              370.60,329.94 369.01,334.18 369.83,337.00              370.35,338.81 371.69,340.53 372.82,342.00              376.49,346.76 387.79,361.20 393.93,352.77              395.60,350.48 398.06,342.95 398.85,340.00              401.38,330.51 403.11,317.81 403.00,308.00              402.52,266.65 376.53,226.63 339.00,209.31              319.62,200.37 298.19,197.31 277.00,199.29 Z            M 114.11,211.22            C 108.42,214.12 109.01,219.46 109.00,225.00              109.00,225.00 109.00,262.00 109.00,262.00              109.00,262.00 109.00,379.00 109.00,379.00              109.00,379.00 109.00,403.00 109.00,403.00              109.04,406.23 109.05,410.03 111.51,412.49              114.34,415.32 119.30,414.99 123.00,415.00              123.00,415.00 129.00,415.00 129.00,415.00              138.59,414.87 139.98,411.88 140.00,403.00              140.00,403.00 140.00,258.00 140.00,258.00              140.00,258.00 140.00,222.00 140.00,222.00              139.99,218.82 140.38,214.87 137.69,212.60              134.78,210.15 124.03,210.98 120.00,211.22              117.65,211.01 116.44,211.06 114.11,211.22 Z            M 332.00,333.91            C 330.06,334.13 329.94,333.84 328.00,334.89              324.41,336.85 315.16,346.01 314.33,350.00              313.01,356.37 323.81,364.81 328.00,369.00              328.00,369.00 370.00,411.00 370.00,411.00              373.40,414.40 382.67,424.98 387.00,425.58              390.57,426.07 393.62,423.19 396.00,420.96              400.64,416.60 407.95,410.97 403.98,404.00              401.90,400.35 390.65,389.65 387.00,386.00              387.00,386.00 353.00,352.00 353.00,352.00              347.79,346.79 338.77,335.77 332.00,333.91 Z"
     style="fill:#88d7f6" />
</svg>
